<svg width="56" height="56" viewBox="0 0 56 56" fill="none" xmlns="http://www.w3.org/2000/svg">
<path d="M35.916 41.9996L36.3205 50.2026L28.0231 44.4365L19.6792 50.2081L20.084 41.9996H16.5798L15.9758 54.2496H19.989L28.0185 48.6955L36.0109 54.2496H40.0243L39.4203 41.9996H35.916ZM45.4354 16.9433L45.1954 11.6874L40.7641 8.85164L37.9278 4.41988L32.6718 4.17925L28 1.75977L23.3283 4.1798L18.0723 4.42042L15.236 8.85164L10.8046 11.6874L10.5647 16.9433L8.14453 21.6152L10.5647 26.2871L10.8053 31.5429L15.236 34.3787L18.0718 38.8105L23.3279 39.0506L28 41.4707L32.6718 39.0506L37.9278 38.8105L40.7637 34.3787L45.1953 31.5433L45.4354 26.2875L47.8555 21.6156L45.4354 16.9433ZM41.9741 25.3596L41.7813 29.5721L38.2293 31.8449L35.9565 35.3968L31.7439 35.5893L28 37.5289L24.2557 35.5893L20.0431 35.3968L17.7703 31.8449L14.2188 29.5721L14.0264 25.3596L12.086 21.6152L14.026 17.8715L14.2188 13.6583L17.7703 11.3855L20.0431 7.83369L24.2557 7.64119L28 5.70153L31.7444 7.64108L35.957 7.83358L38.2298 11.3854L41.7813 13.6583L41.9737 17.8709L43.9141 21.6152L41.9741 25.3596Z" fill="#0047AB"/>
</svg>
