<svg width="85" height="85" viewBox="0 0 85 85" fill="none" xmlns="http://www.w3.org/2000/svg">
<g filter="url(#filter0_d_2784_1071)">
<path d="M15 38.5C15 23.3122 27.3122 11 42.5 11C57.6878 11 70 23.3122 70 38.5C70 53.6878 57.6878 66 42.5 66C27.3122 66 15 53.6878 15 38.5Z" fill="#60A5FA"/>
<path d="M49.4695 40.1867C51.5138 41.5745 52.9464 43.4547 52.9464 45.9617V50.4385H58.9154V45.9617C58.9154 42.7086 53.5881 40.7836 49.4695 40.1867ZM46.9774 38.5005C50.2753 38.5005 52.9464 35.8294 52.9464 32.5315C52.9464 29.2336 50.2753 26.5625 46.9774 26.5625C46.2761 26.5625 45.6195 26.7117 44.9927 26.9206C46.2768 28.5087 46.9774 30.4892 46.9774 32.5315C46.9774 34.5738 46.2768 36.5543 44.9927 38.1423C45.6195 38.3513 46.2761 38.5005 46.9774 38.5005ZM38.0239 38.5005C41.3218 38.5005 43.9929 35.8294 43.9929 32.5315C43.9929 29.2336 41.3218 26.5625 38.0239 26.5625C34.7261 26.5625 32.0549 29.2336 32.0549 32.5315C32.0549 35.8294 34.7261 38.5005 38.0239 38.5005ZM38.0239 29.547C39.6654 29.547 41.0084 30.89 41.0084 32.5315C41.0084 34.173 39.6654 35.516 38.0239 35.516C36.3824 35.516 35.0394 34.173 35.0394 32.5315C35.0394 30.89 36.3824 29.547 38.0239 29.547ZM38.0239 39.9927C34.0396 39.9927 26.0859 41.9923 26.0859 45.9617V50.4385H49.9619V45.9617C49.9619 41.9923 42.0082 39.9927 38.0239 39.9927ZM46.9774 47.454H29.0704V45.9766C29.3689 44.9022 33.9949 42.9772 38.0239 42.9772C42.053 42.9772 46.679 44.9022 46.9774 45.9617V47.454Z" fill="white"/>
</g>
<defs>
<filter id="filter0_d_2784_1071" x="0" y="0" width="85" height="85" filterUnits="userSpaceOnUse" color-interpolation-filters="sRGB">
<feFlood flood-opacity="0" result="BackgroundImageFix"/>
<feColorMatrix in="SourceAlpha" type="matrix" values="0 0 0 0 0 0 0 0 0 0 0 0 0 0 0 0 0 0 127 0" result="hardAlpha"/>
<feOffset dy="4"/>
<feGaussianBlur stdDeviation="7.5"/>
<feComposite in2="hardAlpha" operator="out"/>
<feColorMatrix type="matrix" values="0 0 0 0 0 0 0 0 0 0 0 0 0 0 0 0 0 0 0.1 0"/>
<feBlend mode="normal" in2="BackgroundImageFix" result="effect1_dropShadow_2784_1071"/>
<feBlend mode="normal" in="SourceGraphic" in2="effect1_dropShadow_2784_1071" result="shape"/>
</filter>
</defs>
</svg>
