<svg width="85" height="85" viewBox="0 0 85 85" fill="none" xmlns="http://www.w3.org/2000/svg">
<g filter="url(#filter0_d_2784_914)">
<path d="M15 38.5C15 23.3122 27.3122 11 42.5 11C57.6878 11 70 23.3122 70 38.5C70 53.6878 57.6878 66 42.5 66C27.3122 66 15 53.6878 15 38.5Z" fill="#60A5FA"/>
<path d="M57.3085 30.4682C57.157 30.1035 56.8673 29.8138 56.5026 29.6623C56.3232 29.5859 56.1306 29.5453 55.9356 29.543H48.4743C48.0786 29.543 47.699 29.7002 47.4192 29.98C47.1393 30.2599 46.9821 30.6394 46.9821 31.0352C46.9821 31.431 47.1393 31.8105 47.4192 32.0904C47.699 32.3702 48.0786 32.5275 48.4743 32.5275H52.3393L43.9976 40.8691L39.0881 35.9447C38.9494 35.8048 38.7843 35.6938 38.6025 35.6181C38.4206 35.5423 38.2256 35.5033 38.0286 35.5033C37.8316 35.5033 37.6366 35.5423 37.4547 35.6181C37.2729 35.6938 37.1078 35.8048 36.9691 35.9447L28.0156 44.8982C27.8758 45.0369 27.7647 45.202 27.689 45.3838C27.6132 45.5657 27.5742 45.7607 27.5742 45.9577C27.5742 46.1547 27.6132 46.3497 27.689 46.5316C27.7647 46.7134 27.8758 46.8785 28.0156 47.0172C28.1543 47.1571 28.3194 47.2681 28.5012 47.3438C28.6831 47.4196 28.8781 47.4586 29.0751 47.4586C29.2721 47.4586 29.4672 47.4196 29.649 47.3438C29.8308 47.2681 29.9959 47.1571 30.1346 47.0172L38.0286 39.1083L42.9381 44.0327C43.0768 44.1726 43.2419 44.2836 43.4237 44.3593C43.6056 44.4351 43.8006 44.4741 43.9976 44.4741C44.1946 44.4741 44.3896 44.4351 44.5715 44.3593C44.7533 44.2836 44.9184 44.1726 45.0571 44.0327L54.4433 34.6315V38.4965C54.4433 38.8922 54.6006 39.2718 54.8804 39.5516C55.1603 39.8315 55.5398 39.9887 55.9356 39.9887C56.3314 39.9887 56.7109 39.8315 56.9908 39.5516C57.2706 39.2718 57.4278 38.8922 57.4278 38.4965V31.0352C57.4255 30.8402 57.3849 30.6476 57.3085 30.4682Z" fill="white"/>
</g>
<defs>
<filter id="filter0_d_2784_914" x="0" y="0" width="85" height="85" filterUnits="userSpaceOnUse" color-interpolation-filters="sRGB">
<feFlood flood-opacity="0" result="BackgroundImageFix"/>
<feColorMatrix in="SourceAlpha" type="matrix" values="0 0 0 0 0 0 0 0 0 0 0 0 0 0 0 0 0 0 127 0" result="hardAlpha"/>
<feOffset dy="4"/>
<feGaussianBlur stdDeviation="7.5"/>
<feComposite in2="hardAlpha" operator="out"/>
<feColorMatrix type="matrix" values="0 0 0 0 0 0 0 0 0 0 0 0 0 0 0 0 0 0 0.1 0"/>
<feBlend mode="normal" in2="BackgroundImageFix" result="effect1_dropShadow_2784_914"/>
<feBlend mode="normal" in="SourceGraphic" in2="effect1_dropShadow_2784_914" result="shape"/>
</filter>
</defs>
</svg>
