<svg width="85" height="85" viewBox="0 0 85 85" fill="none" xmlns="http://www.w3.org/2000/svg">
<g filter="url(#filter0_d_2784_1046)">
<path d="M15 38.5C15 23.3122 27.3122 11 42.5 11C57.6878 11 70 23.3122 70 38.5C70 53.6878 57.6878 66 42.5 66C27.3122 66 15 53.6878 15 38.5Z" fill="#60A5FA"/>
<path d="M53.704 39.3613L42.5121 50.4457L31.3203 39.3613C30.5821 38.643 30.0006 37.7795 29.6125 36.8254C29.2243 35.8713 29.038 34.8472 29.0651 33.8175C29.0922 32.7878 29.3322 31.7749 29.7701 30.8426C30.2079 29.9102 30.834 29.0786 31.609 28.4001C32.384 27.7216 33.2911 27.211 34.2731 26.9003C35.2552 26.5896 36.291 26.4856 37.3152 26.5948C38.3394 26.7041 39.3299 27.0242 40.2243 27.5351C41.1187 28.046 41.8977 28.7365 42.5121 29.5632C43.1292 28.7425 43.9091 28.058 44.8029 27.5526C45.6967 27.0471 46.6852 26.7316 47.7065 26.6257C48.7279 26.5199 49.7601 26.626 50.7386 26.9374C51.717 27.2489 52.6207 27.7589 53.3929 28.4356C54.1652 29.1123 54.7895 29.9412 55.2267 30.8703C55.6639 31.7993 55.9047 32.8087 55.9339 33.8351C55.9631 34.8615 55.7801 35.8829 55.3964 36.8353C55.0127 37.7877 54.4365 38.6507 53.704 39.3703" stroke="white" stroke-width="2.23837" stroke-linecap="round" stroke-linejoin="round"/>
</g>
<defs>
<filter id="filter0_d_2784_1046" x="0" y="0" width="85" height="85" filterUnits="userSpaceOnUse" color-interpolation-filters="sRGB">
<feFlood flood-opacity="0" result="BackgroundImageFix"/>
<feColorMatrix in="SourceAlpha" type="matrix" values="0 0 0 0 0 0 0 0 0 0 0 0 0 0 0 0 0 0 127 0" result="hardAlpha"/>
<feOffset dy="4"/>
<feGaussianBlur stdDeviation="7.5"/>
<feComposite in2="hardAlpha" operator="out"/>
<feColorMatrix type="matrix" values="0 0 0 0 0 0 0 0 0 0 0 0 0 0 0 0 0 0 0.1 0"/>
<feBlend mode="normal" in2="BackgroundImageFix" result="effect1_dropShadow_2784_1046"/>
<feBlend mode="normal" in="SourceGraphic" in2="effect1_dropShadow_2784_1046" result="shape"/>
</filter>
</defs>
</svg>
