<svg width="21" height="25" viewBox="0 0 21 25" fill="none" xmlns="http://www.w3.org/2000/svg">
<path d="M10.125 13.5C11.989 13.5 13.5 11.989 13.5 10.125C13.5 8.26104 11.989 6.75 10.125 6.75C8.26104 6.75 6.75 8.26104 6.75 10.125C6.75 11.989 8.26104 13.5 10.125 13.5Z" stroke="#265BA6" stroke-width="2.25" stroke-linecap="round" stroke-linejoin="round"/>
<path d="M10.125 1.125C7.73805 1.125 5.44887 2.07321 3.76104 3.76104C2.07321 5.44887 1.125 7.73805 1.125 10.125C1.125 12.2535 1.57725 13.6462 2.8125 15.1875L10.125 23.625L17.4375 15.1875C18.6728 13.6462 19.125 12.2535 19.125 10.125C19.125 7.73805 18.1768 5.44887 16.489 3.76104C14.8011 2.07321 12.5119 1.125 10.125 1.125Z" stroke="#265BA6" stroke-width="2.25" stroke-linecap="round" stroke-linejoin="round"/>
</svg>
