<svg width="23" height="18" viewBox="0 0 23 18" fill="none" xmlns="http://www.w3.org/2000/svg">
<path d="M2.25 18C1.63125 18 1.10175 17.7799 0.6615 17.3396C0.22125 16.8994 0.00075 16.3695 0 15.75V2.25C0 1.63125 0.2205 1.10175 0.6615 0.6615C1.1025 0.22125 1.632 0.00075 2.25 0H20.25C20.8687 0 21.3986 0.2205 21.8396 0.6615C22.2806 1.1025 22.5007 1.632 22.5 2.25V15.75C22.5 16.3687 22.2799 16.8986 21.8396 17.3396C21.3994 17.7806 20.8695 18.0007 20.25 18H2.25ZM20.25 4.5L11.8406 9.75938C11.7469 9.81563 11.6486 9.858 11.5459 9.8865C11.4431 9.915 11.3445 9.92887 11.25 9.92812C11.1555 9.92737 11.0573 9.9135 10.9552 9.8865C10.8532 9.8595 10.7546 9.81713 10.6594 9.75938L2.25 4.5V15.75H20.25V4.5ZM11.25 7.875L20.25 2.25H2.25L11.25 7.875ZM2.25 4.78125V3.12188V3.15V3.1365V4.78125Z" fill="#265BA6"/>
</svg>
