<svg width="40" height="40" viewBox="0 0 40 40" fill="none" xmlns="http://www.w3.org/2000/svg">
<path d="M20 40C17.2333 40 14.6333 39.4747 12.2 38.424C9.76667 37.3733 7.65 35.9487 5.85 34.15C4.05 32.3513 2.62534 30.2347 1.576 27.8C0.526669 25.3653 0.00133587 22.7653 2.53164e-06 20C-0.0013308 17.2347 0.524003 14.6347 1.576 12.2C2.628 9.76533 4.05267 7.64867 5.85 5.85C7.64734 4.05133 9.764 2.62667 12.2 1.576C14.636 0.525334 17.236 0 20 0C22.764 0 25.364 0.525334 27.8 1.576C30.236 2.62667 32.3527 4.05133 34.15 5.85C35.9473 7.64867 37.3727 9.76533 38.426 12.2C39.4793 14.6347 40.004 17.2347 40 20C39.996 22.7653 39.4707 25.3653 38.424 27.8C37.3773 30.2347 35.9527 32.3513 34.15 34.15C32.3473 35.9487 30.2307 37.374 27.8 38.426C25.3693 39.478 22.7693 40.0027 20 40ZM20 36C24.4667 36 28.25 34.45 31.35 31.35C34.45 28.25 36 24.4667 36 20C36 15.5333 34.45 11.75 31.35 8.65C28.25 5.55 24.4667 4 20 4C15.5333 4 11.75 5.55 8.65 8.65C5.55 11.75 4 15.5333 4 20C4 24.4667 5.55 28.25 8.65 31.35C11.75 34.45 15.5333 36 20 36ZM20 32C16.6667 32 13.8333 30.8333 11.5 28.5C9.16667 26.1667 8 23.3333 8 20C8 16.6667 9.16667 13.8333 11.5 11.5C13.8333 9.16667 16.6667 8 20 8C23.3333 8 26.1667 9.16667 28.5 11.5C30.8333 13.8333 32 16.6667 32 20C32 23.3333 30.8333 26.1667 28.5 28.5C26.1667 30.8333 23.3333 32 20 32ZM20 28C22.2 28 24.0833 27.2167 25.65 25.65C27.2167 24.0833 28 22.2 28 20C28 17.8 27.2167 15.9167 25.65 14.35C24.0833 12.7833 22.2 12 20 12C17.8 12 15.9167 12.7833 14.35 14.35C12.7833 15.9167 12 17.8 12 20C12 22.2 12.7833 24.0833 14.35 25.65C15.9167 27.2167 17.8 28 20 28ZM20 24C18.9 24 17.9587 23.6087 17.176 22.826C16.3933 22.0433 16.0013 21.1013 16 20C15.9987 18.8987 16.3907 17.9573 17.176 17.176C17.9613 16.3947 18.9027 16.0027 20 16C21.0973 15.9973 22.0393 16.3893 22.826 17.176C23.6127 17.9627 24.004 18.904 24 20C23.996 21.096 23.6047 22.038 22.826 22.826C22.0473 23.614 21.1053 24.0053 20 24Z" fill="#60A5FA"/>
</svg>
