<svg width="21" height="21" viewBox="0 0 21 21" fill="none" xmlns="http://www.w3.org/2000/svg">
<path d="M19.0688 20.25C16.725 20.25 14.4049 19.7437 12.1084 18.7312C9.81187 17.7188 7.72575 16.275 5.85 14.4C3.97425 12.525 2.5305 10.4438 1.51875 8.15625C0.507 5.86875 0.00075 3.54375 0 1.18125V0H6.6375L7.67812 5.65312L4.47187 8.8875C4.88438 9.61875 5.34375 10.3125 5.85 10.9688C6.35625 11.625 6.9 12.2344 7.48125 12.7969C8.025 13.3406 8.6205 13.8611 9.26775 14.3584C9.915 14.8556 10.6133 15.3195 11.3625 15.75L14.625 12.4875L20.25 13.6406V20.25H19.0688ZM3.40313 6.75L5.25938 4.89375L4.78125 2.25H2.27813C2.37188 3.09375 2.5125 3.88612 2.7 4.62712C2.8875 5.36812 3.12188 6.07575 3.40313 6.75ZM13.4719 16.8188C14.2219 17.1375 14.9768 17.3906 15.7365 17.5781C16.4963 17.7656 17.2507 17.8875 18 17.9438V15.4688L15.3562 14.9344L13.4719 16.8188Z" fill="#265BA6"/>
</svg>
