<svg width="56" height="56" viewBox="0 0 56 56" fill="none" xmlns="http://www.w3.org/2000/svg">
<path d="M51.1459 15.4467C50.9091 14.8765 50.456 14.4234 49.8859 14.1867C49.6054 14.0671 49.3041 14.0037 48.9992 14H37.3325C36.7137 14 36.1202 14.2458 35.6826 14.6834C35.245 15.121 34.9992 15.7145 34.9992 16.3333C34.9992 16.9522 35.245 17.5457 35.6826 17.9832C36.1202 18.4208 36.7137 18.6667 37.3325 18.6667H43.3759L30.3325 31.71L22.6559 24.01C22.439 23.7913 22.1809 23.6177 21.8966 23.4993C21.6122 23.3808 21.3072 23.3198 20.9992 23.3198C20.6912 23.3198 20.3862 23.3808 20.1019 23.4993C19.8175 23.6177 19.5595 23.7913 19.3425 24.01L5.34254 38.01C5.12384 38.2269 4.95025 38.485 4.83179 38.7693C4.71333 39.0537 4.65234 39.3586 4.65234 39.6667C4.65234 39.9747 4.71333 40.2797 4.83179 40.564C4.95025 40.8484 5.12384 41.1064 5.34254 41.3233C5.55945 41.542 5.81752 41.7156 6.10186 41.8341C6.3862 41.9525 6.69118 42.0135 6.99921 42.0135C7.30723 42.0135 7.61221 41.9525 7.89655 41.8341C8.18089 41.7156 8.43896 41.542 8.65587 41.3233L20.9992 28.9567L28.6759 36.6567C28.8928 36.8754 29.1509 37.049 29.4352 37.1674C29.7195 37.2859 30.0245 37.3469 30.3325 37.3469C30.6406 37.3469 30.9455 37.2859 31.2299 37.1674C31.5142 37.049 31.7723 36.8754 31.9892 36.6567L46.6659 21.9567V28C46.6659 28.6188 46.9117 29.2123 47.3493 29.6499C47.7869 30.0875 48.3804 30.3333 48.9992 30.3333C49.618 30.3333 50.2115 30.0875 50.6491 29.6499C51.0867 29.2123 51.3325 28.6188 51.3325 28V16.3333C51.3288 16.0284 51.2654 15.7272 51.1459 15.4467Z" fill="#0047AB"/>
</svg>
