<svg width="56" height="56" viewBox="0 0 56 56" fill="none" xmlns="http://www.w3.org/2000/svg">
<path d="M38.8954 30.6354C42.092 32.8054 44.332 35.7454 44.332 39.6654V46.6654H53.6654V39.6654C53.6654 34.5787 45.3354 31.5687 38.8954 30.6354ZM34.9987 27.9987C40.1554 27.9987 44.332 23.822 44.332 18.6654C44.332 13.5087 40.1554 9.33203 34.9987 9.33203C33.902 9.33203 32.8754 9.56536 31.8954 9.89203C33.9032 12.3752 34.9986 15.472 34.9986 18.6654C34.9986 21.8588 33.9032 24.9555 31.8954 27.4387C32.8754 27.7654 33.902 27.9987 34.9987 27.9987ZM20.9987 27.9987C26.1554 27.9987 30.332 23.822 30.332 18.6654C30.332 13.5087 26.1554 9.33203 20.9987 9.33203C15.842 9.33203 11.6654 13.5087 11.6654 18.6654C11.6654 23.822 15.842 27.9987 20.9987 27.9987ZM20.9987 13.9987C23.5654 13.9987 25.6654 16.0987 25.6654 18.6654C25.6654 21.232 23.5654 23.332 20.9987 23.332C18.432 23.332 16.332 21.232 16.332 18.6654C16.332 16.0987 18.432 13.9987 20.9987 13.9987ZM20.9987 30.332C14.7687 30.332 2.33203 33.4587 2.33203 39.6654V46.6654H39.6654V39.6654C39.6654 33.4587 27.2287 30.332 20.9987 30.332ZM34.9987 41.9987H6.9987V39.6887C7.46536 38.0087 14.6987 34.9987 20.9987 34.9987C27.2987 34.9987 34.532 38.0087 34.9987 39.6654V41.9987Z" fill="#0047AB"/>
</svg>
