<svg width="44" height="32" viewBox="0 0 44 32" fill="none" xmlns="http://www.w3.org/2000/svg">
<path d="M16 16C16 17.5913 16.6321 19.1174 17.7574 20.2426C18.8826 21.3679 20.4087 22 22 22C23.5913 22 25.1174 21.3679 26.2426 20.2426C27.3679 19.1174 28 17.5913 28 16C28 14.4087 27.3679 12.8826 26.2426 11.7574C25.1174 10.6321 23.5913 10 22 10C20.4087 10 18.8826 10.6321 17.7574 11.7574C16.6321 12.8826 16 14.4087 16 16Z" stroke="#60A5FA" stroke-width="4" stroke-linecap="round" stroke-linejoin="round"/>
<path d="M42 16C38.8 7.806 31.328 2 22 2C12.672 2 5.2 7.806 2 16C5.2 24.194 12.672 30 22 30C31.328 30 38.8 24.194 42 16Z" stroke="#60A5FA" stroke-width="4" stroke-linecap="round" stroke-linejoin="round"/>
</svg>
